<svg xmlns="http://www.w3.org/2000/svg" viewBox="0 0 360 240" role="img" aria-labelledby="title desc">
  <title id="title">Smart casual travel clothing</title>
  <desc id="desc">Smart casual clothes for museums, dinners and city stops.</desc>
  <defs>
    <linearGradient id="bg" x1="0" x2="1" y1="0" y2="1">
      <stop offset="0" stop-color="#fff8f4"/>
      <stop offset="1" stop-color="#e9d9d1"/>
    </linearGradient>
  </defs>
  <rect width="360" height="240" fill="url(#bg)"/>
  <path d="M134 61h88l38 37-22 37-20-11v82h-80v-82l-20 11-22-37 38-37z" fill="#111"/>
  <path d="M156 61c8 18 16 29 22 29s14-11 22-29" fill="#fff"/>
  <path d="M178 90l-17 48 17 18 17-18z" fill="#BE6A35"/>
  <path d="M139 61l39 29 39-29" fill="none" stroke="#fff" stroke-width="7" stroke-linecap="round" stroke-linejoin="round"/>
  <rect x="74" y="151" width="68" height="42" rx="10" fill="#BE6A35"/>
  <path d="M92 151v-14c0-10 8-18 18-18s18 8 18 18v14" fill="none" stroke="#111" stroke-width="8"/>
  <path d="M243 151h50M232 176h71M247 201h40" stroke="#6d625b" stroke-width="15" stroke-linecap="round"/>
</svg>
